<?xml version="1.0" encoding="UTF-8" standalone="no"?><!DOCTYPE svg PUBLIC "-//W3C//DTD SVG 1.1//EN" "http://www.w3.org/Graphics/SVG/1.1/DTD/svg11.dtd"><svg width="100%" height="100%" viewBox="0 0 3980 1580" version="1.1" xmlns="http://www.w3.org/2000/svg" xmlns:xlink="http://www.w3.org/1999/xlink" xml:space="preserve" xmlns:serif="http://www.serif.com/" style="fill-rule:evenodd;clip-rule:evenodd;stroke-linejoin:round;stroke-miterlimit:2;"><g><g><ellipse cx="826.272" cy="182.806" rx="136.234" ry="133.165" style="fill:#fff;"/><path d="M1088.69,141.306l0,-59.191c-48.781,-39.474 -102.597,-63.965 -150.455,-70.083l-0,129.274l150.455,0Z" style="fill:#fff;fill-rule:nonzero;"/><path d="M990.447,25.27c1.424,15.966 12.095,32.274 29.626,42.022c17.911,9.889 37.869,10.089 52.231,2.327c-26.758,-19.417 -54.578,-34.34 -81.857,-44.349Z" style="fill:#008ece;fill-rule:nonzero;"/><circle cx="853.41" cy="171.895" r="49.202" style="fill:#008ece;"/><path d="M1287.91,235.439c-0,-87.955 -71.307,-159.261 -159.261,-159.261c-35.964,-0 -69.04,12.095 -95.697,32.173c-52.432,-0.943 -94.694,-43.687 -94.694,-96.339c-30.027,-7.301 -61.398,-11.012 -93.691,-11.012c-16.609,0 -32.976,1.143 -49.082,3.149c-65.269,5.075 -257.004,36.686 -382.307,228.923c-18.534,-100.672 -97.342,-180.202 -197.652,-199.799c50.787,45.753 82.699,112.005 82.699,185.778c0,138.1 -111.944,250.004 -250.023,250.004c-16.488,-0 -32.615,-1.585 -48.2,-4.634c44.308,39.956 102.998,64.266 167.324,64.266c79.671,0 150.496,-37.408 196.288,-95.456c35.624,128.753 178.597,291.765 368.708,341.027c1.564,0.421 2.828,0.361 3.911,0.1c34.44,9.809 70.745,15.204 108.314,15.204c106.428,0 202.967,-42.162 273.892,-110.7c-22.826,5.697 -46.695,8.685 -71.306,8.685c-149.794,0 -273.592,-111.422 -293.008,-255.901c51.83,48.34 121.09,78.107 197.311,79.21l102.557,82.639l-20.76,-92.909c33.537,-9.066 64.587,-24.09 92.247,-43.526l80.794,65.088l-25.775,-115.313c8.444,-9.889 16.468,-20.159 23.588,-31.13c49.905,-26.878 83.823,-79.591 83.823,-140.266Zm-462.098,46.334c-62.721,-0 -113.528,-50.807 -113.528,-113.529c-0,-62.701 50.807,-113.508 113.528,-113.508c62.682,-0 113.509,50.807 113.509,113.508c0.02,62.722 -50.827,113.529 -113.509,113.529Z" style="fill:#008ece;fill-rule:nonzero;"/></g><path d="M1972.65,808.658l260.734,-0c35.303,-0 69.582,3.71 102.798,11.152c33.216,7.401 62.681,19.557 88.496,36.526c25.775,16.989 46.455,39.213 62.02,66.773c15.505,27.56 23.307,61.117 23.307,100.691c0,54.418 -15.364,98.766 -46.113,133.046c-30.749,34.239 -72.59,57.366 -125.564,69.421l200.26,332.763l-161.086,-0l-173.824,-317.941l-97.502,0l0,317.941l-133.526,-0l-0,-750.372Zm242.682,323.275c19.116,0 38.191,-1.404 57.266,-4.272c19.075,-2.828 36.205,-8.063 51.389,-15.906c15.204,-7.762 27.74,-18.834 37.649,-33.336c9.828,-14.482 14.803,-33.056 14.803,-55.621c-0,-20.52 -4.594,-37.288 -13.8,-50.386c-9.167,-13.078 -20.841,-23.508 -34.942,-31.271c-14.181,-7.762 -30.207,-13.078 -48.259,-15.906c-17.972,-2.808 -35.503,-4.232 -52.452,-4.232l-120.81,-0l0,210.93l109.156,0Z" style="fill:#1d1d1b;fill-rule:nonzero;"/><g><rect x="2608.53" y="1050.28" width="127.248" height="508.733" style="fill:#1d1d1b;"/><path d="M2671.07,953.878c23.308,0 42.985,-7.281 58.891,-21.743c15.906,-14.502 23.849,-32.715 23.849,-54.618c-0,-21.863 -7.943,-40.076 -23.849,-54.578c-15.906,-14.442 -35.563,-21.723 -58.891,-21.723c-23.267,0 -42.543,7.622 -57.707,22.786c-15.204,15.244 -22.806,33.056 -22.806,53.515c0,20.499 7.602,38.351 22.806,53.555c15.144,15.204 34.42,22.806 57.707,22.806Z" style="fill:#008ece;fill-rule:nonzero;"/></g><path d="M3252.98,965.512c-14.181,-18.373 -34.119,-33.738 -59.894,-46.094c-25.814,-12.355 -51.749,-18.593 -77.885,-18.593c-15.545,-0 -31.11,1.965 -46.655,5.877c-15.545,3.911 -29.686,9.868 -42.383,18.012c-12.737,8.123 -23.147,18.734 -31.27,31.772c-8.144,13.098 -12.216,28.803 -12.216,47.136c0,16.989 3.53,31.491 10.611,43.526c7.101,11.995 16.769,22.244 29.144,30.709c12.376,8.464 27.38,15.866 45.051,22.244c17.671,6.339 37.107,12.737 58.288,19.076c24.01,7.802 48.922,16.608 74.757,26.476c25.774,9.869 49.443,22.987 70.985,39.214c21.543,16.267 39.214,36.746 53.014,61.458c13.76,24.751 20.639,55.52 20.639,92.227c0,40.276 -7.441,75.458 -22.244,105.465c-14.803,30.047 -34.6,54.919 -59.352,74.716c-24.751,19.817 -53.715,34.68 -86.891,44.569c-33.216,9.869 -68.198,14.803 -104.944,14.803c-48.781,-0 -96.459,-9.026 -143.074,-27.058c-46.655,-17.972 -84.826,-44.67 -114.471,-79.992l95.396,-89.018c18.373,25.454 42.944,45.552 73.653,60.395c30.749,14.843 60.956,22.245 90.622,22.245c15.545,-0 31.411,-1.926 47.718,-5.837c16.267,-3.851 30.91,-10.431 43.948,-19.597c13.077,-9.207 23.668,-20.64 31.812,-34.46c8.103,-13.74 12.215,-30.889 12.215,-51.389c-0,-19.777 -4.613,-36.204 -13.8,-49.262c-9.207,-13.098 -21.542,-24.411 -37.107,-33.938c-15.545,-9.528 -33.919,-17.872 -55.12,-24.912c-21.201,-7.021 -43.446,-14.462 -66.793,-22.245c-22.606,-7.06 -45.211,-15.545 -67.817,-25.433c-22.605,-9.889 -42.944,-22.967 -60.916,-39.214c-18.012,-16.267 -32.715,-36.205 -43.987,-59.893c-11.353,-23.629 -16.969,-53.154 -16.969,-88.496c-0,-38.151 7.943,-70.986 23.849,-98.566c15.906,-27.539 36.706,-50.345 62.521,-68.318c25.774,-18.032 55.119,-31.451 87.954,-40.316c32.875,-8.806 66.252,-13.239 100.17,-13.239c38.151,0 76.863,6.72 116.036,20.139c39.254,13.459 73.292,33.577 102.296,60.415l-86.891,95.396Z" style="fill:#1d1d1b;fill-rule:nonzero;"/><path d="M3452.17,808.658l244.869,-0c43.085,-0 81.957,3.851 116.557,11.653c34.681,7.783 64.327,20.48 89.038,38.151c24.712,17.631 43.807,40.276 57.266,67.816c13.399,27.58 20.098,60.796 20.098,99.629c0,41.72 -7.762,76.682 -23.307,104.923c-15.545,28.262 -36.546,51.028 -63.083,68.338c-26.477,17.35 -57.386,29.846 -92.728,37.649c-35.343,7.803 -72.751,11.654 -112.326,11.654l-102.837,-0l-0,310.519l-133.547,-0l0,-750.332Zm226.857,327.488c21.903,-0 42.744,-1.605 62.561,-4.774c19.737,-3.169 37.408,-8.806 52.973,-16.969c15.505,-8.104 27.901,-19.216 37.108,-33.377c9.166,-14.101 13.759,-32.474 13.759,-55.119c0,-21.864 -4.593,-39.715 -13.759,-53.515c-9.207,-13.78 -21.382,-24.531 -36.546,-32.354c-15.244,-7.742 -32.514,-12.857 -51.95,-15.324c-19.437,-2.467 -39.374,-3.731 -59.894,-3.731l-97.502,-0l-0,215.163l93.25,-0Z" style="fill:#1d1d1b;fill-rule:nonzero;"/><path d="M1549.77,1130.85l-0,110.239l157.917,0l-0,190.773c-42.403,17.651 -92.227,26.476 -149.433,26.476c-41.7,0 -78.968,-6.9 -111.823,-20.64c-32.876,-13.799 -60.776,-33.015 -83.723,-57.787c-22.986,-24.711 -40.657,-53.836 -53.033,-87.433c-12.356,-33.537 -18.514,-70.484 -18.514,-110.74c0,-38.833 6.158,-74.857 18.514,-108.133c12.356,-33.176 29.846,-62.14 52.492,-86.892c22.605,-24.711 49.964,-44.148 82.137,-58.289c32.133,-14.1 67.997,-21.201 107.572,-21.201c40.256,0 77.524,7.442 111.803,22.244c34.26,14.843 60.937,32.876 80.012,54.057l92.227,-99.628c-30.408,-28.242 -70.484,-51.048 -120.288,-68.358c-49.824,-17.31 -104.783,-25.976 -164.837,-25.976c-51.69,0 -99.99,7.362 -144.92,22.024l17.892,85.789l-75.017,-62.261c-21.262,10.611 -41.199,22.766 -59.613,36.707l25.755,97.702l-72.931,-54.337c-27.379,29.887 -49.865,64.286 -66.894,103.821c-20.86,48.42 -31.27,102.637 -31.27,162.69c-0,58.65 10.069,112.205 30.227,160.565c20.118,48.44 48.2,90.121 84.244,125.062c36.024,34.981 79.109,62.22 129.274,81.596c50.165,19.437 105.646,29.165 166.422,29.165c59.352,-0 111.804,-5.155 157.395,-15.365c45.572,-10.249 87.413,-24.591 125.584,-42.924l-0,-388.946l-287.171,0Z" style="fill:#1d1d1b;fill-rule:nonzero;"/></g></svg>